<svg width="310" height="226" viewBox="0 0 310 226" fill="none" xmlns="http://www.w3.org/2000/svg">
<path d="M40 42C40 40.8954 40.8954 40 42 40H268C269.105 40 270 40.8954 270 42V184C270 185.105 269.105 186 268 186H42C40.8954 186 40 185.105 40 184V42Z" fill="white"/>
<path d="M42 41H268V39H42V41ZM269 42V184H271V42H269ZM268 185H42V187H268V185ZM41 184V42H39V184H41ZM42 185C41.4477 185 41 184.552 41 184H39C39 185.657 40.3431 187 42 187V185ZM269 184C269 184.552 268.552 185 268 185V187C269.657 187 271 185.657 271 184H269ZM268 41C268.552 41 269 41.4477 269 42H271C271 40.3431 269.657 39 268 39V41ZM42 39C40.3431 39 39 40.3431 39 42H41C41 41.4477 41.4477 41 42 41V39Z" fill="white" fill-opacity="0.1"/>
<path d="M257.124 177.863C259.544 177.893 262.304 177.793 263.854 176.133C264.214 175.743 264.494 175.263 264.434 174.763C264.314 173.683 262.844 173.223 261.644 173.043C254.634 172.003 247.464 172.403 240.374 172.823C235.944 173.083 231.464 173.343 227.244 174.553C225.044 175.183 223.294 176.823 226.074 177.543C228.764 178.243 232.884 177.573 235.714 177.603C242.844 177.683 249.984 177.773 257.124 177.863Z" fill="url(#paint0_linear_0_1)"/>
<path d="M257.124 177.863C259.544 177.893 262.304 177.793 263.854 176.133C264.214 175.743 264.494 175.263 264.434 174.763C264.314 173.683 262.844 173.223 261.644 173.043C254.634 172.003 247.464 172.403 240.374 172.823C235.944 173.083 231.464 173.343 227.244 174.553C225.044 175.183 223.294 176.823 226.074 177.543C228.764 178.243 232.884 177.573 235.714 177.603C242.844 177.683 249.984 177.773 257.124 177.863Z" fill="url(#paint1_linear_0_1)"/>
<path d="M235.624 172.942C236.214 172.942 236.814 172.953 237.404 172.953C237.504 172.953 237.614 172.952 237.694 172.882C237.764 172.812 237.784 172.712 237.804 172.612C237.884 171.992 237.964 171.362 238.054 170.742C238.044 170.822 236.064 170.473 235.824 170.673C235.354 171.033 235.614 172.422 235.624 172.942Z" fill="#F0E5D4"/>
<path d="M248.214 172.933C248.774 172.943 249.334 172.943 249.904 172.933C250.084 172.933 250.284 172.923 250.414 172.793C250.544 172.663 250.554 172.453 250.554 172.273C250.554 171.773 250.554 171.273 250.554 170.773C250.554 170.723 250.554 170.663 250.524 170.613C250.484 170.543 250.394 170.533 250.314 170.523C249.864 170.473 248.524 170.323 248.224 170.733C248.094 170.903 248.294 172.943 248.214 172.933Z" fill="#F0E5D4"/>
<path d="M249.554 86.4025C251.364 84.1825 253.034 86.6325 253.684 88.7725C256.304 97.4025 257.134 106.663 257.944 115.823C258.074 117.293 258.204 118.753 258.334 120.223C258.804 125.503 259.264 130.793 259.734 136.073C259.764 136.383 254.524 137.713 254.074 137.853C251.334 138.663 248.494 138.713 245.704 138.523C242.214 138.283 238.744 137.673 235.234 137.713C233.744 137.733 232.224 137.863 230.774 137.443C231.374 134.363 231.434 131.193 231.574 128.053C231.894 120.473 232.634 112.913 233.364 105.363C233.774 101.123 234.024 96.7925 234.544 92.5925C234.834 90.2925 235.764 86.2725 237.754 85.2525C239.874 84.1725 240.884 86.9925 242.594 87.7125C244.544 88.5425 246.944 88.6725 248.744 87.2225C249.084 86.9625 249.324 86.6725 249.554 86.4025Z" fill="#333333"/>
<path d="M232.794 62.7725C232.904 62.3625 232.944 61.9225 232.914 61.5025C232.884 61.0825 232.714 60.5925 232.294 60.5125C231.884 60.4325 231.544 60.8225 231.344 61.1825C230.404 62.8325 230.164 64.7725 229.944 66.6525C230.594 66.8525 231.274 66.9625 231.944 66.9525C231.944 66.1625 232.134 65.3825 232.504 64.6825C232.904 63.9425 233.514 63.2325 233.454 62.3925C233.344 62.3825 233.234 62.3725 233.114 62.3625C233.004 62.4925 232.904 62.6325 232.794 62.7725Z" fill="#E8DBCE"/>
<path d="M245.864 90.4726C245.114 87.8726 239.314 86.7926 237.134 85.7526C234.774 84.6226 232.644 83.0026 230.924 81.0326C230.544 80.5926 230.174 80.1226 229.974 79.5726C229.434 78.0826 232.314 66.7326 232.064 66.6526L229.574 65.9126C228.394 69.2326 227.184 72.5526 226.034 75.8826C225.144 78.4526 223.604 81.1326 224.094 83.9526C224.414 85.7326 226.334 86.9326 227.604 88.2226C229.014 89.6626 232.294 92.9326 234.084 94.7626L239.434 100.173C240.624 102.833 243.374 95.7326 244.094 94.8226C244.924 93.7426 246.284 91.9426 245.864 90.4726Z" fill="#333333"/>
<path d="M236.044 146.643C236.404 139.213 235.644 131.623 235.714 124.153C235.474 121.563 235.864 118.923 236.844 116.483C236.904 116.333 236.974 116.173 237.094 116.063C237.474 115.703 238.114 115.893 238.604 116.083C243.374 117.913 249.014 117.483 253.364 114.893C254.224 116.113 254.474 117.613 254.684 119.053C255.024 121.393 255.404 123.723 255.494 126.073V126.083C255.514 126.583 255.524 127.093 255.514 127.593C255.454 130.523 254.844 133.403 254.374 136.283C254.064 138.163 253.794 140.063 253.764 141.963C253.744 143.523 253.504 144.093 253.294 146.303C252.924 150.143 252.684 154.333 252.294 158.173C251.874 162.283 251.464 166.403 251.124 170.523C251.114 170.683 251.094 170.853 251.084 171.013C250.864 171.073 247.464 171.803 247.464 170.973C247.194 162.973 246.914 154.973 246.644 146.973C246.534 143.603 246.404 140.193 245.494 136.983C245.114 137.023 244.744 137.053 244.364 137.093C242.294 147.673 241.504 158.213 239.434 168.793C239.254 169.723 239.034 170.733 238.374 171.333C237.714 171.933 235.194 171.823 234.994 170.893C235.574 162.823 235.644 154.733 236.044 146.643Z" fill="#363F4C"/>
<path d="M247.774 172.143C248.984 172.043 250.214 172.093 251.404 172.293C252.324 172.983 253.344 173.553 254.414 173.983C254.724 174.113 255.054 174.233 255.284 174.473C255.514 174.713 255.604 175.123 255.394 175.383C255.204 175.603 254.874 175.633 254.584 175.633C252.344 175.653 250.104 175.463 247.904 175.063C247.774 175.043 247.634 175.013 247.534 174.913C247.454 174.833 247.424 174.733 247.394 174.623C247.164 173.803 247.304 172.873 247.774 172.143Z" fill="#736357"/>
<path d="M238.444 172.203C237.224 172.183 236.014 172.303 234.824 172.573C233.944 173.313 232.964 173.943 231.924 174.443C231.624 174.583 231.304 174.723 231.094 174.983C230.884 175.243 230.814 175.653 231.044 175.903C231.244 176.113 231.574 176.123 231.864 176.103C234.104 175.993 236.324 175.663 238.504 175.133C238.634 175.103 238.774 175.063 238.864 174.963C238.934 174.883 238.964 174.773 238.984 174.673C239.154 173.823 238.954 172.903 238.444 172.203Z" fill="#736357"/>
<path d="M244.794 85.1925C245.804 85.1825 246.734 84.6025 247.434 83.8725C250.044 81.1725 249.964 76.9325 249.714 73.1825C249.684 72.7825 249.654 72.3625 249.424 72.0325C249.074 71.5225 248.394 71.3925 247.784 71.3225C245.174 71.3225 242.604 71.4425 239.974 71.5725C239.754 71.5825 239.514 71.6025 239.344 71.7325C239.154 71.8825 239.094 72.1225 239.054 72.3525C238.874 73.4325 239.224 74.5625 239.204 75.6625C239.184 76.7925 239.234 77.9325 239.434 79.0425C239.814 81.2125 240.814 83.2325 242.694 84.4625C243.324 84.8825 244.044 85.1925 244.794 85.1925Z" fill="#F0E5D4"/>
<path d="M255.724 118.873C255.794 118.863 255.824 118.833 255.784 118.763C255.514 118.353 255.084 117.613 254.644 116.733C254.314 112.393 253.794 108.043 252.904 103.763C251.794 98.4926 249.414 93.6026 247.994 88.4126C247.574 86.8926 246.874 86.8826 244.924 86.9626C244.144 86.9226 243.814 87.0226 243.754 87.0326C242.494 86.9626 242.924 87.1826 241.894 86.8726C240.754 86.5226 239.564 87.4226 239.564 88.3726C239.564 89.3826 239.544 90.3926 239.514 91.4126C237.524 99.6626 236.324 108.043 235.954 116.463C235.954 116.473 235.954 116.483 235.954 116.493C235.844 116.923 235.734 117.353 235.614 117.793C235.364 118.443 235.094 119.183 235.064 119.763C235.044 119.823 235.034 119.873 235.014 119.933C234.804 120.673 235.294 121.313 236.104 121.563C242.334 123.493 249.004 123.183 254.974 120.773C255.054 120.743 255.134 120.703 255.194 120.663C255.244 120.643 255.294 120.623 255.354 120.603C255.444 120.543 255.544 120.483 255.634 120.423C255.844 120.243 255.974 120.003 256.014 119.753C256.064 119.473 255.964 119.123 255.724 118.873Z" fill="#1A1A1A"/>
<path d="M242.474 60.4325C241.754 60.4325 241.044 60.4325 240.324 60.3425C240.024 60.3025 239.994 60.7325 240.274 60.7925C240.974 60.9525 241.674 61.1225 242.384 61.2225C242.904 61.2925 242.974 60.4325 242.474 60.4325Z" fill="#666666"/>
<path d="M238.154 55.2325C238.064 55.5325 238.064 55.8525 238.054 56.1525C238.044 56.4825 237.974 56.8525 238.064 57.1725C238.104 57.3325 238.344 57.4525 238.454 57.2725C238.614 56.9925 238.644 56.6625 238.714 56.3525C238.784 56.0125 238.884 55.6625 238.864 55.3125C238.844 54.9425 238.254 54.8825 238.154 55.2325Z" fill="#666666"/>
<path d="M241.364 56.7025C241.024 56.8925 240.734 57.1525 240.434 57.4125C240.174 57.6425 239.894 57.8525 239.734 58.1625C239.654 58.3025 239.814 58.4825 239.964 58.4525C240.264 58.3925 240.514 58.2125 240.764 58.0525C241.104 57.8325 241.474 57.6325 241.754 57.3425C242.034 57.0625 241.774 56.4825 241.364 56.7025Z" fill="#666666"/>
<path d="M261.184 91.8826C260.344 90.9126 252.514 83.7626 250.204 87.6426C249.134 89.4526 251.424 90.9526 252.594 92.1326C254.404 93.9526 256.224 95.7725 258.034 97.5925C259.914 99.4825 261.804 101.373 263.194 103.463C264.904 106.023 265.854 108.863 265.994 111.843C266.014 112.243 266.024 112.653 266.294 112.983C266.574 113.313 267.194 113.523 267.864 113.383C268.964 113.143 269.344 112.263 269.414 111.593C270.194 104.233 266.204 97.7226 261.184 91.8826Z" fill="#333333"/>
<path d="M266.524 113.462C266.434 113.972 266.094 114.472 266.274 114.962C266.374 115.242 266.644 115.462 266.684 115.752C266.714 115.952 266.624 116.142 266.644 116.342C266.664 116.592 266.854 116.802 267.074 116.922C267.294 117.042 267.554 117.072 267.804 117.072C268.064 117.082 268.334 117.062 268.544 116.922C268.744 116.792 268.864 116.582 268.954 116.362C269.144 115.882 269.154 115.342 269.074 114.832C268.994 114.322 268.824 113.832 268.654 113.342C268.604 113.212 268.554 113.072 268.444 112.982C268.354 112.912 268.234 112.892 268.114 112.872C267.754 112.822 267.374 112.832 267.014 112.882C266.554 112.962 266.594 113.042 266.524 113.462Z" fill="#F0E5D4"/>
<path d="M234.294 58.8825C234.504 58.4225 234.734 57.9125 235.134 57.6525C235.594 57.3425 236.104 57.4725 236.534 57.6525C237.024 57.8625 237.494 58.1125 237.934 58.4125C238.124 58.5425 238.574 58.8325 238.644 59.0725C238.744 59.4225 238.484 59.7925 238.294 60.1625C237.114 62.3525 236.214 64.2225 235.034 66.1725C234.874 66.4425 234.674 66.7425 234.404 66.8225C234.234 66.8725 234.074 66.8224 233.924 66.7724C233.124 66.4724 230.674 65.6225 231.424 64.1725C232.354 62.3825 233.454 60.7325 234.294 58.8825Z" fill="#3D3D3D"/>
<path d="M234.744 58.5823C234.844 58.4223 234.964 58.2524 235.124 58.1724C235.304 58.0824 235.494 58.1424 235.654 58.2024C236.334 58.4624 236.984 58.8123 237.624 59.1523C237.724 59.2023 237.984 59.3423 238.034 59.4623C238.074 59.5323 238.144 59.6623 238.144 59.7523C238.144 60.0623 237.894 60.3224 237.774 60.6324C237.664 60.9124 237.464 61.1424 237.334 61.4124C237.194 61.7024 237.024 61.9923 236.864 62.2723C236.634 62.6923 236.404 63.1223 236.194 63.5623C236.044 63.8723 235.874 64.1823 235.744 64.5023C235.684 64.6523 235.594 64.8024 235.474 64.8924C235.304 65.0324 235.134 65.0223 234.964 64.9623C234.634 64.8523 234.324 64.6824 234.024 64.5124C233.574 64.2624 233.124 64.0124 232.664 63.7624C232.504 63.6724 232.134 63.5423 232.204 63.2523C232.234 63.0923 232.394 62.9024 232.474 62.7624C232.584 62.5724 232.694 62.3723 232.794 62.1823C233.214 61.4123 233.594 60.6223 234.014 59.8423C234.244 59.4123 234.484 58.9923 234.744 58.5823Z" fill="white"/>
<path d="M237.384 58.5727C237.344 58.5327 237.284 58.5027 237.234 58.4727C237.114 58.4127 236.984 58.3426 236.864 58.2826C236.794 58.2426 236.694 58.2026 236.664 58.2426C236.644 58.2626 236.654 58.2926 236.674 58.3126C236.744 58.4326 237.334 58.7827 237.434 58.6927C237.444 58.6627 237.424 58.6127 237.384 58.5727Z" fill="#5E625E"/>
<path d="M236.604 58.1726C236.604 58.1426 236.574 58.1125 236.544 58.1125C236.514 58.1125 236.484 58.1326 236.454 58.1626C236.434 58.1826 236.424 58.2026 236.424 58.2326C236.424 58.2826 236.474 58.3126 236.514 58.3026C236.554 58.2926 236.594 58.2426 236.604 58.1926V58.1726Z" fill="#5E625E"/>
<path d="M233.174 64.8525C233.084 64.8725 233.004 64.9325 232.944 65.0125C232.914 65.0525 232.884 65.0925 232.864 65.1325C232.814 65.2425 232.834 65.3625 232.884 65.4625C232.934 65.5525 233.034 65.6225 233.124 65.6525C233.154 65.6625 233.174 65.6725 233.204 65.6625C233.234 65.6625 233.264 65.6425 233.294 65.6225C233.404 65.5525 233.494 65.4325 233.524 65.3025C233.594 65.0725 233.414 64.7925 233.174 64.8525Z" fill="#EBEFEB"/>
<path d="M250.614 70.7326C250.514 70.1926 250.374 69.6526 250.054 69.2126C249.694 68.7026 249.114 68.3826 248.514 68.2026C247.914 68.0326 247.284 67.9926 246.664 67.9726C243.984 67.8926 241.174 68.1326 238.894 69.5526C238.754 69.6426 238.614 69.7326 238.514 69.8626C238.404 69.9926 238.344 70.1626 238.284 70.3226C238.004 71.0826 237.714 71.8526 237.664 72.6626C237.624 73.2626 237.704 73.8726 237.794 74.4726C237.914 75.2726 238.044 76.0626 238.254 76.8426C238.614 78.2026 239.214 79.5026 239.964 80.6926C239.484 79.6226 239.554 78.4026 239.664 77.2326C239.714 76.6326 239.774 76.0426 239.834 75.4426C239.894 74.8326 239.984 74.1626 240.434 73.7526C240.844 73.3626 241.454 73.2926 242.014 73.2826C242.574 73.2726 243.164 73.3126 243.674 73.0926L243.834 72.4526C243.814 72.8226 244.014 73.1826 244.304 73.4226C244.594 73.6626 244.944 73.7926 245.304 73.8926C245.694 74.0026 246.094 74.0826 246.494 74.0526C246.884 74.0226 247.264 73.8826 247.654 73.8426C248.044 73.8026 248.484 73.8626 248.734 74.1626C248.974 74.4426 248.984 74.8426 248.994 75.2126C249.024 76.2526 249.124 77.2826 249.284 78.3026C249.344 78.1926 249.414 78.0826 249.474 77.9826C249.764 78.2726 249.564 78.7426 249.434 79.1226C249.284 79.5426 249.244 80.0026 249.304 80.4426C249.724 79.3526 250.144 78.2626 250.434 77.1226C250.954 75.0326 251.024 72.8426 250.614 70.7326Z" fill="#736357"/>
<path d="M155.41 175.382C158.28 175.332 161.16 175.292 164.02 175.022C165.45 174.892 166.89 174.702 168.26 174.292C169.34 173.972 170.47 173.432 170.97 172.422C171.04 172.282 171.1 172.122 171.07 171.962C171.05 171.802 170.95 171.672 170.83 171.562C170.25 170.992 169.35 170.972 168.54 170.982C160.61 171.092 152.68 171.242 144.77 171.882C143.35 172.002 141.74 172.232 140.92 173.402C139.13 175.952 145.29 175.392 146.4 175.422C149.41 175.482 152.41 175.432 155.41 175.382Z" fill="url(#paint2_linear_0_1)"/>
<path d="M155.41 175.382C158.28 175.332 161.16 175.292 164.02 175.022C165.45 174.892 166.89 174.702 168.26 174.292C169.34 173.972 170.47 173.432 170.97 172.422C171.04 172.282 171.1 172.122 171.07 171.962C171.05 171.802 170.95 171.672 170.83 171.562C170.25 170.992 169.35 170.972 168.54 170.982C160.61 171.092 152.68 171.242 144.77 171.882C143.35 172.002 141.74 172.232 140.92 173.402C139.13 175.952 145.29 175.392 146.4 175.422C149.41 175.482 152.41 175.432 155.41 175.382Z" fill="url(#paint3_linear_0_1)"/>
<path d="M135.21 137.762C137.35 148.282 143.44 157.682 145.57 168.212C145.71 168.902 145.84 169.612 146.22 170.192C146.61 170.772 147.33 171.202 148 171.022C149.22 170.692 149.21 168.992 149.04 167.742C148.54 164.012 148.97 160.222 149.41 156.482C150.09 150.652 150.77 144.822 151.45 138.982C151.96 138.452 152.88 138.572 153.44 139.052C154 139.522 154.27 140.242 154.49 140.942C155.48 144.052 155.89 147.302 156.31 150.532C157.14 157.002 157.96 163.482 158.06 170.002C158.65 170.042 159.24 170.082 159.83 170.112C162.25 163.652 164.07 156.992 165.78 150.322C166.65 146.942 167.49 143.552 168.04 140.102C168.76 135.572 168.95 130.972 169.1 126.392C169.13 125.462 169.14 124.472 168.61 123.702C168.14 123.022 167.33 122.672 166.55 122.372C159.86 119.802 152.67 118.852 145.53 118.292C143.52 118.132 141.49 118.012 139.51 118.372C137.95 118.652 136.25 119.272 135.08 120.392C133.76 121.662 134.19 123.672 134.18 125.422C134.16 129.552 134.38 133.702 135.21 137.762Z" fill="#666666"/>
<path d="M130.98 114.412C130.32 116.412 129.8 118.782 131.02 120.502C131.6 121.312 132.48 121.842 133.37 122.292C138.37 124.812 144.09 125.402 149.66 125.942C154.68 126.432 159.72 126.922 164.76 126.652C167.16 126.522 169.69 126.172 171.56 124.662C173.34 123.232 174.27 120.942 174.52 118.672C174.77 116.402 174.43 114.112 174.08 111.852C173.7 109.372 173.32 106.892 172.67 104.472C171.54 100.262 169.57 96.2819 166.93 92.8219C164.93 90.2119 162.5 87.8519 159.52 86.4519C156.7 85.1219 152.42 84.5119 149.49 85.9419C146.56 87.3619 143.87 91.4519 141.91 93.9719C137.14 100.102 133.41 107.042 130.98 114.412Z" fill="#FCEE9F"/>
<path d="M158.91 79.1719C158.88 79.7019 158.85 80.2419 158.7 80.7619C158.33 81.9919 157.21 83.1019 155.69 83.6919C154.17 84.2819 152.28 84.3519 150.72 83.8319C149.17 83.3219 148.03 82.3219 147.12 81.2719C145.22 79.0719 144.11 76.4519 144.37 73.8519C144.41 73.4619 144.49 73.0619 144.82 72.7519C145.29 72.3119 146.12 72.2119 146.87 72.1519C149.34 71.9319 156.19 70.3719 158.22 71.5619C160.23 72.7419 159.01 77.5219 158.91 79.1719Z" fill="#F2D6C9"/>
<path d="M138.95 71.7019C139.31 73.2319 141.26 74.3919 143.35 74.6619C145.44 74.9219 147.59 74.4219 149.41 73.6219C151.35 72.7619 153.17 71.5119 155.43 71.4419C155.85 71.4319 156.28 71.4619 156.64 71.6019C157.04 71.7619 157.33 72.0519 157.56 72.3419C158.85 73.9419 159.04 75.8819 159.2 77.7319C159.89 76.1219 160.44 74.4819 160.83 72.8119C161.26 70.9919 161.38 68.8619 159.58 67.5919C158.21 66.6219 156.1 66.4519 154.2 66.6219C151.53 66.8619 148.96 67.6819 146.89 68.9419C146.07 69.4419 145.32 70.0119 144.42 70.4519C143.53 70.8819 142.45 71.1819 141.39 71.0419C140.23 70.8819 140 70.1719 139.19 69.7719C138.86 70.3319 138.81 71.0819 138.95 71.7019Z" fill="#D1B380"/>
<path d="M163.04 97.772C162.3 96.412 161.21 95.302 160.29 94.062C159.37 92.822 158.6 91.362 158.68 89.822C158.76 88.282 159.97 86.722 161.51 86.732C162.15 86.732 162.75 86.992 163.32 87.282C165.17 88.212 166.86 89.482 168.25 91.022C168.79 91.622 169.29 92.262 169.64 92.992C170.15 94.062 170.29 95.272 170.42 96.452C170.64 98.532 170.82 100.642 170.37 102.682C169.72 105.592 167.64 108.192 164.89 109.362C164.3 109.612 163.4 110.042 162.84 109.722C162.24 109.382 162.13 108.602 162.26 108.012C162.6 106.392 163.71 105.052 163.96 103.332C164.21 101.442 163.96 99.462 163.04 97.772Z" fill="#F2D6C9"/>
<path d="M159.83 109.152C159.71 109.232 159.59 109.322 159.5 109.432C159.28 109.712 159.27 110.092 159.27 110.452C159.27 111.022 159.33 111.692 159.82 111.982C160.04 112.112 160.31 112.132 160.57 112.142C160.84 112.152 161.11 112.172 161.38 112.182C161.67 112.202 161.98 112.212 162.22 112.052C162.47 111.892 162.58 111.592 162.68 111.312C162.92 110.622 163.16 109.942 163.4 109.252C163.44 109.132 163.48 109.002 163.43 108.892C163.4 108.822 163.33 108.772 163.27 108.732C162.7 108.292 162.43 108.072 161.7 108.232C161.09 108.362 160.27 108.712 159.83 109.152Z" fill="#F2D6C9"/>
<path d="M165.22 170.582C164.86 170.252 164.33 170.202 163.85 170.172C163.13 170.122 162.41 170.062 161.69 170.012C161.38 169.992 161.05 169.962 160.8 169.782C160.7 169.712 160.62 169.612 160.55 169.512C160.32 169.512 160.1 169.502 159.87 169.502C159.04 169.482 158.21 169.792 157.4 170.042C157.57 170.752 157.73 171.452 157.9 172.162C157.93 172.302 157.97 172.452 158.08 172.542C158.19 172.632 158.35 172.642 158.5 172.642C160.9 172.702 163.31 172.612 165.7 172.382C165.72 171.732 165.7 171.002 165.22 170.582Z" fill="black"/>
<path d="M148.66 169.942C148.7 170.892 148.73 171.892 148.29 172.742C147.98 173.342 147.46 173.792 146.95 174.242C146.68 174.472 146.42 174.702 146.15 174.942C146.08 175.002 146 175.072 145.91 175.102C145.81 175.132 145.7 175.132 145.6 175.122C145.14 175.102 144.69 175.142 144.23 175.112C143.78 175.072 143.31 174.942 142.99 174.612C142.67 174.282 142.57 173.722 142.85 173.362C143.03 173.132 143.33 173.022 143.59 172.892C144.38 172.532 145.06 171.942 145.52 171.212C145.81 170.752 146.08 170.272 146.61 170.082C146.81 170.012 148.66 169.802 148.66 169.942Z" fill="black"/>
<path d="M164.81 107.162C164.7 106.932 164.58 106.702 164.39 106.542C164.14 106.342 163.8 106.332 163.49 106.322C157.92 106.142 152.34 105.952 146.77 105.772C146.32 105.752 145.91 106.042 145.72 106.482C144.82 108.602 143.75 110.382 143.07 112.592C142.98 112.892 143.19 113.192 143.49 113.202C151.01 113.302 158.92 114.112 166.43 113.482C166.94 113.442 167.25 112.862 167.03 112.372C166.28 110.672 165.55 108.682 164.81 107.162Z" fill="#7F7F7F"/>
<path d="M164.66 106.672C164.55 106.442 164.44 106.212 164.24 106.052C163.99 105.852 163.66 105.842 163.36 105.832C157.89 105.652 152.42 105.462 146.96 105.282C146.52 105.262 146.11 105.552 145.93 105.992C145.04 108.112 143.99 109.892 143.33 112.102C143.24 112.402 143.45 112.702 143.74 112.712C151.12 112.812 158.88 113.622 166.25 112.992C166.75 112.952 167.05 112.372 166.84 111.882C166.11 110.182 165.39 108.192 164.66 106.672Z" fill="#666666"/>
<path d="M163.79 107.122C163.69 106.962 163.59 106.792 163.41 106.682C163.19 106.542 162.89 106.532 162.61 106.522C157.68 106.392 152.75 106.252 147.82 106.122C147.42 106.112 147.06 106.312 146.89 106.632C146.09 108.152 145.14 109.432 144.55 111.022C144.47 111.232 144.66 111.452 144.92 111.462C151.58 111.532 158.58 112.122 165.22 111.662C165.67 111.632 165.95 111.212 165.75 110.862C165.1 109.642 164.45 108.212 163.79 107.122Z" fill="#F0F0F0"/>
<path d="M157.3 107.562C157.27 107.602 157.28 107.652 157.29 107.702C157.49 108.852 157.69 110.022 158.13 111.102C159.45 111.102 160.77 111.102 162.09 111.112C162.51 111.112 162.93 111.112 163.33 111.032C162.89 109.892 162.44 108.752 162 107.612C160.49 107.652 158.98 107.622 157.48 107.522C157.41 107.512 157.34 107.512 157.3 107.562Z" fill="#E0C74E"/>
<path d="M155.64 107.442C153.21 107.572 150.8 107.532 148.37 107.442C148.18 107.432 148.18 107.722 148.37 107.742C150.79 107.922 153.22 107.892 155.64 107.772C155.85 107.762 155.86 107.432 155.64 107.442Z" fill="#CACACA"/>
<path d="M155.89 108.372C153.51 108.362 151.13 108.432 148.76 108.562C148.58 108.572 148.58 108.852 148.76 108.842C151.14 108.732 153.51 108.702 155.89 108.712C156.11 108.712 156.11 108.372 155.89 108.372Z" fill="#CACACA"/>
<path d="M155.89 109.542C153.39 109.432 150.88 109.412 148.38 109.422C148.19 109.422 148.19 109.712 148.38 109.712C150.89 109.752 153.39 109.832 155.89 109.892C156.11 109.892 156.11 109.552 155.89 109.542Z" fill="#CACACA"/>
<path d="M155.22 110.432C153 110.412 150.77 110.452 148.54 110.472C148.35 110.472 148.35 110.762 148.54 110.762C150.76 110.782 152.99 110.822 155.22 110.802C155.46 110.802 155.46 110.442 155.22 110.432Z" fill="#CACACA"/>
<path d="M146.02 109.202C146.43 109.242 146.85 109.282 147.26 109.202C147.6 109.142 147.93 109.002 148.21 108.802C148.65 108.492 148.98 107.992 149.01 107.452C149.03 106.912 148.69 106.352 148.17 106.202C147.93 106.132 147.68 106.152 147.43 106.202C146.33 106.392 145.33 107.022 144.22 107.102C143.81 107.132 143.35 107.102 143.06 107.382C142.9 107.542 142.82 107.762 142.78 107.992C142.74 108.232 142.73 108.502 142.85 108.712C143.08 109.122 143.75 108.992 144.15 109.022C144.77 109.082 145.39 109.142 146.02 109.202Z" fill="#F2D6C9"/>
<path d="M138.72 90.0019C136.88 91.3819 135.38 93.1719 133.95 94.9719C132.63 96.6419 131.32 98.392 130.67 100.422C130.02 102.452 130.13 104.842 131.45 106.512C132.79 108.202 135.03 108.822 137.15 109.232C137.99 109.392 138.85 109.542 139.71 109.482C140.66 109.422 142.19 109.602 143.1 109.302C143.59 109.142 143.59 108.672 143.96 108.312C144.33 107.952 144.41 107.172 144.15 106.732C142.61 106.632 141.07 106.472 139.54 106.252C138.27 106.072 136.89 105.782 136.07 104.802C135.18 103.742 135.24 102.112 135.9 100.892C136.56 99.672 137.71 98.8019 138.9 98.0919C140.09 97.3819 141.36 96.792 142.46 95.952C144.34 94.512 152.26 88.7919 150.01 86.3719C148.21 84.4719 140.27 88.8319 138.72 90.0019Z" fill="#F2D6C9"/>
<path d="M170.69 93.892C170.78 93.322 170.39 92.792 170.03 92.342C169.24 91.362 168.45 90.372 167.65 89.392C167.27 88.922 166.89 88.442 166.42 88.052C165.49 87.272 164.29 86.902 163.13 86.562C161.8 86.172 160.25 85.842 159.13 86.652C158.36 87.212 158.01 88.202 158.01 89.152C158.01 90.102 158.32 91.012 158.66 91.902C159.16 93.222 159.7 94.592 160.41 95.812C161 96.842 161.66 96.762 162.66 96.312C165.27 95.142 167.85 94.232 170.69 93.892Z" fill="#FCEE9F"/>
<path d="M140.1 92.722C140.96 94.092 142.02 95.322 143.08 96.542C143.16 96.642 143.26 96.742 143.39 96.742C143.49 96.742 143.58 96.682 143.65 96.622C144.48 95.982 145.04 95.072 145.76 94.312C147.19 92.812 149.25 91.932 150.38 90.202C151.02 89.212 151.3 87.992 151.16 86.822C151.11 86.412 151 85.992 150.74 85.682C150.37 85.232 149.76 85.052 149.18 85.052C148.35 85.052 147.55 85.342 146.78 85.642C144.59 86.492 142.43 87.432 140.31 88.452C139.79 88.702 139.26 88.962 138.74 89.222C138.06 89.572 137.89 89.562 138.33 90.162C138.96 90.992 139.54 91.822 140.1 92.722Z" fill="#FCEE9F"/>
<path d="M205.98 177.152C207.9 177.152 209.86 177.132 211.69 176.542C211.83 176.112 211.57 175.622 211.19 175.362C210.81 175.102 210.35 175.022 209.89 174.962C208.35 174.762 206.79 174.712 205.23 174.662C199.18 174.482 193.12 174.302 187.06 174.262C186.3 174.252 183.13 174.462 184.03 176.002C184.63 177.032 187.44 176.672 188.42 176.722C192.15 176.902 195.88 177.022 199.62 177.092C201.74 177.132 203.86 177.152 205.98 177.152Z" fill="url(#paint4_linear_0_1)"/>
<path d="M205.98 177.152C207.9 177.152 209.86 177.132 211.69 176.542C211.83 176.112 211.57 175.622 211.19 175.362C210.81 175.102 210.35 175.022 209.89 174.962C208.35 174.762 206.79 174.712 205.23 174.662C199.18 174.482 193.12 174.302 187.06 174.262C186.3 174.252 183.13 174.462 184.03 176.002C184.63 177.032 187.44 176.672 188.42 176.722C192.15 176.902 195.88 177.022 199.62 177.092C201.74 177.132 203.86 177.152 205.98 177.152Z" fill="url(#paint5_linear_0_1)"/>
<path d="M210.91 115.902C210.91 115.902 211.25 110.542 201.54 110.922C201.35 110.932 201.17 110.932 200.99 110.942C200.92 110.982 200.86 111.012 200.79 111.052C200.65 111.412 200.53 111.772 200.44 112.142C200.41 112.242 200.39 112.402 200.36 112.552C200.29 113.132 200.31 112.872 200.36 112.552C200.37 112.432 200.39 112.282 200.41 112.092C200.38 112.332 200.33 112.572 200.3 112.802C200 114.942 200.07 117.102 199.88 119.242C199.72 121.072 199.35 122.902 198.95 124.712C199.33 124.692 199.76 124.702 200 124.792C200.49 124.972 200.72 169.372 199.88 172.132L203.74 172.172C203.75 172.182 211.23 126.582 210.91 115.902Z" fill="#97A8B2"/>
<path d="M200.31 90.9718C199.18 90.8118 197.98 91.4018 197.43 92.4018C197.08 93.0418 196.99 93.7918 196.9 94.5218C196.58 97.1118 196.17 99.6918 195.68 102.262C195.35 104.002 195.31 107.462 192.85 107.632C191.93 107.702 190.98 107.002 190.07 106.862C188.58 106.622 187.18 106.542 185.74 106.022C184.58 105.602 183.81 104.982 182.94 104.142C182.42 103.632 181.69 102.622 180.99 102.432C180.49 102.292 179.86 102.872 180.17 103.282C179.55 102.912 178.66 103.502 178.63 104.232C178.57 105.622 181.31 106.412 182.28 107.012C183.78 107.952 185.26 108.942 186.89 109.642C189.46 110.742 192.24 111.362 195.03 111.412C195.52 111.422 196.04 111.402 196.46 111.152C197.36 110.602 197.84 109.312 198.53 108.512C199.16 107.772 199.5 107.282 199.79 106.322C200.59 103.682 201.28 100.972 201.8 98.2618C202.29 95.9818 203.98 91.5118 200.31 90.9718Z" fill="#EADDD0"/>
<path d="M188.99 131.842C189.05 133.552 189.17 135.262 189.28 136.972C189.45 139.532 189.62 142.092 189.78 144.652C189.83 145.472 189.91 146.342 190.41 146.992C190.46 147.062 190.52 147.122 190.6 147.152C190.87 147.252 191.08 146.912 191.17 146.642C192.24 143.422 193.82 140.382 195.85 137.662C196.37 136.972 196.93 136.282 197.68 135.852C198.24 135.532 198.88 135.362 199.52 135.202C200.78 134.882 202.05 134.562 203.31 134.242C204.05 134.052 204.82 133.852 205.4 133.362C205.86 132.972 206.16 132.432 206.45 131.902C207.93 129.232 209.42 126.532 210.17 123.572C210.72 121.412 210.86 119.172 210.82 116.952C210.82 116.732 210.81 116.502 210.73 116.302C210.62 116.022 210.38 115.802 210.13 115.632C209.18 115.002 207.97 114.922 206.83 114.872C202.5 114.682 198.07 114.592 193.83 115.602C192.52 115.912 190.3 116.232 189.66 117.622C188.88 119.322 189.12 121.962 189.03 123.802C188.9 126.472 188.88 129.162 188.99 131.842Z" fill="#97A8B2"/>
<path d="M197.84 128.872C195.42 128.542 192.99 128.222 190.57 127.892C190.45 127.582 191.05 127.902 191.01 128.222C189.74 138.352 190.23 148.642 191.24 158.832C191.68 163.222 191.71 167.632 191.25 172.012C192.25 172.122 193.97 172.272 194.96 172.382C196.8 158.732 197.91 145.042 199.75 131.392C199.84 130.702 199.9 129.902 199.37 129.402C198.98 129.032 198.39 128.942 197.84 128.872Z" fill="#97A8B2"/>
<path d="M194.69 84.1718C196.14 84.1218 197.62 83.1418 199.18 82.8218C198.77 81.5618 199.26 80.2018 199.39 78.8818C199.57 77.0918 199.07 75.3118 198.55 73.6018C198.13 72.2218 197.66 70.7918 196.67 69.7318C196.47 69.5218 196.24 69.3218 195.97 69.2518C195.73 69.1918 195.48 69.2318 195.24 69.2618C193.53 69.5218 188.78 69.7218 188.33 71.6418C187.71 74.2718 189.52 77.7618 190.54 80.0918C191.02 81.1918 191.51 82.3118 192.35 83.1618C193.11 83.9518 193.9 84.2018 194.69 84.1718Z" fill="#EADDD0"/>
<path d="M211.27 121.812L211.3 121.782C211.32 121.762 211.33 121.742 211.35 121.732C211.39 121.672 211.43 121.622 211.47 121.562C211.98 120.782 212.42 119.962 212.87 119.152C213.71 109.692 212.64 100.142 209.67 90.8419C208.74 87.9219 207.82 84.7019 204.33 82.7019C204.15 82.6019 203.96 82.5019 203.74 82.4619C203.45 82.4119 203.15 82.4919 202.87 82.5619C200.99 83.0419 199.11 83.5219 197.22 84.0119C196.85 84.1119 196.47 84.2019 196.09 84.2919C195.69 84.3819 195.29 84.4619 194.88 84.5219C194.18 84.6219 191.43 85.2819 191.33 85.9419C191.09 87.6319 190.87 89.3219 190.68 91.0219C190.2 95.2119 189.84 99.3919 189.85 103.592C189.86 107.782 189.48 111.962 188.79 116.112C188.74 116.432 188.49 118.122 188.19 119.852C188.21 119.882 188.22 119.912 188.24 119.942C188.48 120.402 188.74 120.842 189.03 121.272C189.06 121.312 189.11 121.382 189.16 121.462C189.19 121.492 189.21 121.522 189.23 121.542C189.55 121.912 189.91 122.262 190.28 122.592C190.31 122.622 190.36 122.662 190.42 122.722C189.91 122.242 190.45 122.732 190.6 122.832C190.99 123.092 191.39 123.332 191.8 123.542C191.9 123.592 192.32 123.772 192.36 123.792C192.4 123.812 192.45 123.822 192.49 123.842C198.39 123.592 204.28 123.182 210.13 122.592C210.49 122.302 210.88 122.012 211.27 121.812Z" fill="#E8E8E8"/>
<path d="M191.51 171.632C191.45 171.632 191.39 171.632 191.33 171.642C191.25 171.662 191.2 171.712 191.15 171.752C190.94 171.962 190.78 172.192 190.69 172.442C190.61 172.672 190.59 172.922 190.42 173.122C190.23 173.352 189.88 173.492 189.53 173.602C188.64 173.892 187.68 174.092 186.71 174.182C186.49 174.202 186.27 174.222 186.07 174.282C185.51 174.472 185.37 174.962 185.3 175.392C185.28 175.512 185.27 175.662 185.42 175.732C185.5 175.772 185.6 175.772 185.7 175.772C188.5 175.762 189.69 175.762 192.48 175.762C193.16 175.762 193.87 175.742 194.53 175.622C194.62 175.602 194.71 175.592 194.78 175.542C194.85 175.492 194.88 175.422 194.91 175.352C195.28 174.392 195.32 173.342 195.24 172.352C195.21 172.042 195.16 171.792 194.67 171.722C193.97 171.622 194.74 171.702 194.03 171.682C193.2 171.672 192.35 171.652 191.51 171.632Z" fill="#97A8B2"/>
<path d="M203.6 74.2919C203.61 73.4319 203.11 72.6519 202.69 71.9019C201.99 70.6519 201.43 69.3019 200.57 68.1519C199.71 67.0019 198.44 66.0419 197 66.0019C196.4 65.9819 195.81 66.1219 195.23 66.2619C192.75 66.8619 190.25 67.4719 187.99 68.6519C187.71 68.8019 187.42 68.9619 187.24 69.2319C187.08 69.4619 187.03 69.7519 186.98 70.0319C186.91 70.4219 186.84 70.8219 186.77 71.2119C186.73 71.4619 186.68 71.7119 186.73 71.9519C186.88 72.7019 187.76 73.0319 188.53 73.0819C189.29 73.1219 190.04 73.0219 190.79 72.9119C191.51 72.8119 193.21 72.2119 193.79 72.8619C194.08 73.1819 193.99 73.7219 194.19 74.1019C194.43 74.5719 194.88 74.8519 195.18 75.2719C195.49 75.6619 195.71 76.2019 195.48 76.6419C195.9 76.3919 196.42 76.3119 196.9 76.4319C197.07 76.4719 197.24 76.5419 197.35 76.6719C197.56 76.9319 197.47 77.3319 197.24 77.5719C197.01 77.8119 196.68 77.9219 196.36 78.0219C197.72 79.3319 198.22 81.4619 197.59 83.2519C198.63 83.1419 199.5 82.4219 200.22 81.6619C200.87 80.9719 201.47 80.2219 201.88 79.3719C202.07 78.9719 202.22 78.5619 202.37 78.1519C202.66 77.3319 202.96 76.5019 203.25 75.6819C203.43 75.2219 203.59 74.7619 203.6 74.2919Z" fill="#333333"/>
<path d="M200.2 171.722C200.14 171.722 200.08 171.722 200.02 171.732C199.94 171.752 199.89 171.802 199.84 171.842C199.63 172.052 199.47 172.282 199.38 172.532C199.3 172.762 199.28 173.012 199.11 173.212C198.92 173.442 198.57 173.582 198.22 173.692C197.33 173.982 196.37 174.182 195.4 174.272C195.18 174.292 194.96 174.312 194.76 174.372C194.2 174.562 194.06 175.052 193.99 175.482C193.97 175.602 193.96 175.752 194.11 175.822C194.19 175.862 194.29 175.862 194.39 175.862C197.19 175.852 198.38 175.852 201.17 175.852C201.85 175.852 202.56 175.832 203.22 175.712C203.31 175.692 203.4 175.682 203.47 175.632C203.54 175.582 203.57 175.512 203.6 175.442C203.97 174.482 204.01 173.432 203.93 172.442C203.9 172.132 203.85 171.882 203.36 171.812C202.66 171.712 203.43 171.792 202.72 171.772C201.88 171.762 201.04 171.742 200.2 171.722Z" fill="#97A8B2"/>
<path d="M180.73 105.042C180.44 105.622 180.11 106.192 179.75 106.732C179.7 106.812 179.64 106.892 179.55 106.912C179.46 106.942 179.36 106.892 179.28 106.852C178.31 106.372 177.35 105.892 176.38 105.422C176.61 103.142 176.48 100.382 177.14 98.2118C177.23 97.9018 181.99 98.7318 182.31 99.6018C182.62 100.462 181.74 102.532 181.45 103.362C181.25 103.932 181.01 104.492 180.73 105.042Z" fill="#C7B299"/>
<path d="M176.83 98.4518C176.97 98.4818 177.11 98.4918 177.25 98.5018C177.55 98.5318 177.84 98.5918 178.13 98.6518C179.56 98.9818 180.95 99.4618 182.32 99.9818C182.41 100.012 182.5 100.052 182.6 100.042C182.75 100.022 182.86 99.8818 182.9 99.7418C182.94 99.5918 182.92 99.4418 182.9 99.2918C182.9 99.2618 182.89 99.2318 182.87 99.2118C182.85 99.1918 182.83 99.1818 182.8 99.1718C182.73 99.1418 182.66 99.1118 182.59 99.0918C182.27 98.9718 181.94 98.8718 181.61 98.7818C180.18 98.3818 178.74 98.0118 177.3 97.6718C177.23 97.6518 177.14 97.6418 177.08 97.6818C176.97 97.7618 176.91 97.9618 176.88 98.0818C176.83 98.1818 176.67 98.4218 176.83 98.4518Z" fill="#534741"/>
<path d="M176.76 102.532L181.04 104.392L181.9 102.132L176.76 100.042V102.532Z" fill="#5B8C87"/>
<path d="M192.82 76.9017C192.8 76.8117 192.69 76.7217 192.58 76.7317C191.51 76.8417 190.46 77.0817 189.43 77.3417C189.07 77.4317 189.23 77.9617 189.58 77.8617C190.51 77.6217 191.46 77.4417 192.39 77.2317C192.51 77.7117 192.61 78.2017 192.67 78.7017C192.7 78.9217 192.71 79.1417 192.71 79.3617C192.72 79.7617 192.12 79.7917 191.86 79.8417C191.54 79.9017 191.22 79.9217 190.9 79.9317C190.43 79.9517 190.4 79.7417 190.22 79.4317C189.95 78.9617 189.74 78.4717 189.55 77.9717C189.49 77.8117 189.24 77.8817 189.28 78.0417C189.49 78.7617 189.76 79.4917 190.16 80.1417C190.45 80.6117 191.53 80.3217 191.97 80.2617C192.46 80.1917 193.09 80.0817 193.15 79.5217C193.26 78.6717 193.04 77.7317 192.82 76.9017Z" fill="#333333"/>
<path d="M195.38 75.9618C194.46 76.3118 193.58 76.8418 192.7 77.2818C192.53 77.3618 192.65 77.6418 192.83 77.5818C193.76 77.2718 194.76 77.0118 195.65 76.6018C196.01 76.4418 195.75 75.8218 195.38 75.9618Z" fill="#333333"/>
<path d="M203.34 91.0419C202.98 89.6619 201.48 86.7819 199.9 88.8519C199.42 89.4819 199.3 90.3219 199.21 91.1119C198.44 97.4819 197.66 103.842 196.89 110.212C196.49 113.532 196.05 116.962 194.33 119.822C194.05 120.282 193.74 120.732 193.61 121.252C193.47 121.772 193.55 122.382 193.96 122.732C193.4 123.432 193.86 124.952 194.89 124.872C195.11 124.852 195.31 124.762 195.49 124.632C196.52 123.922 196.26 122.602 196.5 121.502C196.82 120.002 197.28 118.542 197.74 117.092C199.5 111.482 201.71 106.012 202.89 100.282C203.51 97.2219 204.13 94.0519 203.34 91.0419Z" fill="#EADDD0"/>
<path d="M199.34 87.602C198.94 87.692 198.53 87.792 198.23 88.062C197.84 88.412 197.71 88.962 197.6 89.472C196.4 95.232 195.49 101.052 194.87 106.912C196.85 107.412 198.84 107.912 200.82 108.412C203.34 102.932 204.47 96.822 204.07 90.812C204 89.742 203.82 88.552 202.99 87.872C201.99 87.082 200.57 87.322 199.34 87.602Z" fill="#6087A2"/>
<path d="M117.4 176.302C119.41 176.242 121.42 176.172 123.42 176.022C124.39 175.952 125.39 175.852 126.27 175.432C126.75 175.202 127.24 174.692 127.02 174.212C126.84 173.812 126.3 173.752 125.85 173.752C118.6 173.742 111.34 173.732 104.1 174.212C102.79 174.302 101.3 174.502 100.55 175.582C99.63 176.922 102.38 176.542 102.95 176.552C104.54 176.572 106.13 176.572 107.71 176.552C110.95 176.512 114.17 176.412 117.4 176.302Z" fill="url(#paint6_linear_0_1)"/>
<path d="M117.4 176.302C119.41 176.242 121.42 176.172 123.42 176.022C124.39 175.952 125.39 175.852 126.27 175.432C126.75 175.202 127.24 174.692 127.02 174.212C126.84 173.812 126.3 173.752 125.85 173.752C118.6 173.742 111.34 173.732 104.1 174.212C102.79 174.302 101.3 174.502 100.55 175.582C99.63 176.922 102.38 176.542 102.95 176.552C104.54 176.572 106.13 176.572 107.71 176.552C110.95 176.512 114.17 176.412 117.4 176.302Z" fill="url(#paint7_linear_0_1)"/>
<path d="M132.08 104.232C132.27 104.402 132.46 104.562 132.7 104.632C133.03 104.722 133.38 104.612 133.7 104.502C133.92 104.432 134.13 104.352 134.35 104.282C134.43 104.252 134.52 104.222 134.57 104.142C134.62 104.062 134.61 103.972 134.6 103.872C134.39 101.852 134.01 99.8521 133.45 97.9021C132.56 98.3121 131.68 98.7221 130.79 99.1321C130.31 99.3521 128.7 99.7921 128.67 100.372C128.64 100.962 129.78 101.922 130.15 102.322C130.76 102.992 131.4 103.632 132.08 104.232Z" fill="white"/>
<path d="M132.49 97.5321C132.75 97.4221 133.03 97.3121 133.32 97.3521C133.6 97.3921 133.88 97.6422 133.84 97.9222C133.81 98.1222 132.75 98.6021 132.56 98.7121C132.1 98.9821 131.63 99.2321 131.15 99.4721C130.67 99.7121 130.18 99.9322 129.69 100.142C129.42 100.262 128.83 100.632 128.51 100.522C127.34 100.112 129.38 98.9921 129.73 98.7921C130.62 98.3121 131.55 97.9221 132.49 97.5321Z" fill="#333333"/>
<path d="M122.17 172.852C121.74 172.882 121.3 172.912 120.88 172.802C120.46 172.692 120.06 172.402 119.93 171.992C119.82 171.642 119.87 171.182 119.57 170.982C119.5 170.932 119.42 170.912 119.33 170.902C119.29 163.572 119.47 159.342 119.42 151.862C119.79 149.372 119.57 147.062 119.51 144.652C119.33 137.042 119.16 129.432 118.98 121.822C118.96 120.812 118.92 119.762 118.42 118.822C117.61 117.302 115.81 116.442 114.12 115.782C109.1 113.822 103.42 111.022 102.04 117.322C101.67 118.992 101.37 120.672 101.12 122.372C100.94 123.582 100.8 124.842 101.24 126.042C101.99 128.082 103.38 133.092 105.14 134.572C109.73 138.432 111.73 142.792 113.24 147.912C112.77 149.622 113.32 152.042 113.53 153.362C114.51 159.692 116.53 165.582 117.52 171.912C117.1 172.692 116.92 173.602 117.04 174.482C117.06 174.662 117.1 174.842 117.22 174.972C117.39 175.162 117.67 175.202 117.92 175.222C118.63 175.272 119.34 175.292 120.05 175.282C120.6 175.272 121.19 175.222 121.61 174.862C122.16 174.402 122.19 173.582 122.17 172.852Z" fill="#998675"/>
<path d="M116.19 129.562C114.78 126.452 109.62 124.362 104.75 127.912C101.84 130.032 104.05 132.392 104.69 134.492C105.47 137.042 105.99 139.672 106.23 142.342C106.7 147.492 106.17 152.832 104.63 158.182C103.61 161.742 103.59 165.642 102.88 169.192C102.49 171.182 101.25 173.822 101.54 175.802C102.64 175.812 103.74 175.822 104.83 175.832C105.8 175.842 106.83 175.832 107.64 175.302C108.45 174.772 108.85 173.512 108.17 172.822C107.5 173.042 106.79 173.262 106.1 173.102C103.07 172.382 107.03 165.532 107.61 164.022C110.08 157.582 112.55 151.142 114.34 144.702C115.66 139.992 118.13 133.812 116.19 129.562Z" fill="#998675"/>
<path d="M117.12 95.2321C118.32 98.1821 119.52 101.122 120.72 104.072C121.05 104.882 121.38 105.742 121.22 106.592C120.94 108.102 119.29 108.912 117.8 109.252C114.85 105.062 111.74 100.982 108.49 97.0221C106.64 94.7721 103.76 89.5721 108.01 88.0021C112.83 86.2321 115.69 91.7121 117.12 95.2321Z" fill="#ACB18F"/>
<path d="M127.93 90.7521C128.32 90.1721 128.88 90.4321 129.37 90.9321C128 95.8921 126.78 100.892 125.71 105.922C125.38 107.482 124.96 109.202 123.63 110.102C123.07 110.482 122.39 110.672 121.72 110.782C120.51 110.992 119.05 110.882 118.37 109.862C117.4 108.402 118.6 106.982 119.56 105.962C120.69 104.772 121.17 104.002 121.87 102.382C123.48 98.6421 125.66 94.1521 127.93 90.7521Z" fill="#ACB18F"/>
<path d="M130.22 90.522C130.33 90.382 130.39 90.212 130.46 90.042C130.63 89.612 130.8 89.172 130.97 88.742C131.05 88.542 131.13 88.342 131.14 88.132C131.15 87.922 131.09 87.692 130.93 87.552C130.78 87.422 130.57 87.392 130.37 87.432C130.17 87.472 130.01 87.582 129.85 87.702C129.5 87.972 129.21 88.322 129.01 88.722C128.85 89.042 128.75 89.3921 128.5 89.6421C128.39 89.7521 128.26 89.842 128.16 89.972C128.01 90.162 127.98 90.432 128.07 90.652C128.4 91.382 129.84 91.022 130.22 90.522Z" fill="#F2D6C9"/>
<path d="M122.41 130.602C121.91 119.902 120.8 109.232 119.35 98.6021C118.82 94.7021 118.18 90.0621 114.1 88.2421C110.32 86.5521 105.66 86.1221 103.2 89.9221C101.82 92.0521 101.51 94.6321 101.22 97.1321C99.48 112.422 97.74 127.712 96 143.002C97.91 143.112 120.77 146.502 120.87 145.072C120.87 145.052 120.87 145.032 120.87 145.022C121.02 145.012 121.16 144.982 121.29 144.922C121.8 144.692 121.95 144.082 122.04 143.552C122.71 139.272 122.61 134.922 122.41 130.602Z" fill="#EBEFEB"/>
<path d="M129.45 102.562C129.5 102.452 129.54 102.332 129.61 102.232C129.76 102.022 130.02 101.942 130.28 101.912C130.53 101.882 130.79 101.902 131.04 101.862C131.82 101.722 132.46 100.952 133.24 101.072C133.48 101.112 133.7 101.232 133.9 101.372C134.16 101.562 134.4 101.812 134.47 102.122C134.57 102.612 134.22 103.082 133.9 103.462C133.72 103.672 133.53 103.892 133.29 104.022C133.09 104.132 132.86 104.172 132.63 104.222C132.08 104.352 131.53 104.552 131.09 104.932C130.73 105.242 130.43 105.672 129.98 105.782C129.16 105.982 128.39 105.082 128.3 104.342C128.19 103.582 129.17 103.192 129.45 102.562Z" fill="#F2D6C9"/>
<path d="M130 105.192C129.64 104.472 129.28 103.752 128.93 103.032C127.8 103.222 126.95 104.122 126.14 104.922C125.02 106.032 123.81 107.052 122.52 107.972C121.76 108.512 120.89 109.032 119.97 108.892C118.85 108.722 118.13 107.632 117.55 106.652C115.39 102.962 113.23 99.262 111.07 95.572C109.36 92.652 107.45 93.7219 106.22 96.3419C105.11 98.7319 106.54 101.422 107.64 103.582C109.06 106.372 110.63 109.082 112.35 111.712C113.36 113.252 114.57 114.872 116.37 115.282C117.23 115.482 118.15 115.372 119 115.122C121.75 114.342 123.93 112.292 125.96 110.272C127.27 108.962 128.57 107.622 129.84 106.272C129.98 106.122 130.13 105.962 130.16 105.752C130.18 105.572 130.09 105.372 130 105.192Z" fill="#ACB18F"/>
<path d="M117.75 73.522C117.3 72.182 116.59 70.532 115.14 70.182C113.57 69.812 111.35 70.842 110.21 71.842C108.8 73.072 107.92 74.812 107.43 76.612C106.89 78.572 106.8 80.752 107.68 82.592C108.56 84.432 110.57 85.812 112.58 85.512C113.93 85.312 115.08 84.422 115.96 83.382C118.22 80.712 118.86 76.822 117.75 73.522Z" fill="#F2D6C9"/>
<path d="M111 78.552C110.55 77.762 109.19 77.802 108.79 78.612C108.49 79.212 109.57 81.652 109.73 82.402C110.15 84.392 108.01 97.972 108.56 99.942C105.35 100.012 102.11 99.662 99.05 98.682C98.74 98.582 98.41 98.462 98.19 98.212C97.91 97.882 97.9 97.402 97.92 96.972C98.16 90.532 104.1 68.612 112.09 68.802C113.07 68.822 114.04 69.042 115 69.272C115.63 69.422 116.26 69.592 116.83 69.912C117.99 70.582 118.71 71.852 119 73.162C119.3 74.472 119.22 75.832 119.15 77.162C119.13 77.572 114.34 77.152 113.88 77.082C113.36 77.002 112.39 76.592 111.87 76.812C111.27 77.062 111.2 78.012 111 78.552Z" fill="#534741"/>
<path opacity="0.19" d="M104.02 120.692C102.64 120.422 101.38 119.752 100.15 119.082C100.35 118.482 100.55 117.882 100.74 117.282C106.38 119.312 112.79 119.132 118.31 116.792C118.4 117.742 118.48 118.692 118.57 119.642C117.07 119.962 115.54 120.082 114.02 120.212C111.94 120.382 109.87 120.552 107.79 120.732C106.54 120.832 105.26 120.932 104.02 120.692Z" fill="white"/>
<path d="M70.8299 173.736C71.4099 173.656 72.0399 173.546 72.4299 173.106C72.5199 173.006 72.59 172.886 72.59 172.756C72.6 172.416 72.1699 172.266 71.8299 172.216C65.8299 171.386 59.7499 171.506 53.6999 171.156C51.2999 171.016 48.83 170.796 46.48 171.436C45.75 171.636 44.4399 171.886 44.4199 172.846C44.3999 173.606 45.24 174.286 45.87 174.546C46.91 174.986 48.3099 174.786 49.4099 174.806C50.7899 174.836 52.1699 174.846 53.5499 174.836C56.2499 174.826 58.9599 174.756 61.6599 174.596C64.7199 174.436 67.7899 174.156 70.8299 173.736Z" fill="url(#paint8_linear_0_1)"/>
<path opacity="0.22" d="M70.8299 173.736C71.4099 173.656 72.0399 173.546 72.4299 173.106C72.5199 173.006 72.59 172.886 72.59 172.756C72.6 172.416 72.1699 172.266 71.8299 172.216C65.8299 171.386 59.7499 171.506 53.6999 171.156C51.2999 171.016 48.83 170.796 46.48 171.436C45.75 171.636 44.4399 171.886 44.4199 172.846C44.3999 173.606 45.24 174.286 45.87 174.546C46.91 174.986 48.3099 174.786 49.4099 174.806C50.7899 174.836 52.1699 174.846 53.5499 174.836C56.2499 174.826 58.9599 174.756 61.6599 174.596C64.7199 174.436 67.7899 174.156 70.8299 173.736Z" fill="url(#paint9_linear_0_1)"/>
<path d="M62.58 97.3159C61.68 92.8459 61.95 88.2259 62.01 83.6659C62.03 82.4359 62.01 81.126 61.36 80.076C61.19 79.806 60.9599 79.5459 60.6499 79.4759C60.4299 79.4359 60.21 79.496 60 79.546C57.16 80.186 54.2299 78.7859 51.3199 78.9459C50.9299 78.9659 50.53 79.0159 50.21 79.2259C49.98 79.3759 49.8099 79.586 49.6499 79.796C48.0499 81.896 47.0899 84.4059 46.3099 86.9259C44.8799 91.5359 43.9699 96.2859 43.0599 101.026L42.59 101.896C44.84 101.086 47.2999 101.326 49.6799 101.526C53.2299 101.836 56.78 102.076 60.34 102.226C60.64 102.236 60.94 102.256 61.23 102.186C62.15 101.976 62.74 101.036 62.87 100.106C63 99.176 62.77 98.2359 62.58 97.3159Z" fill="#6B4C4C"/>
<path d="M53.1999 84.5758C53.8499 84.9358 54.4799 85.1858 54.9599 85.2458C55.5199 85.3158 56.0699 85.0958 56.5899 84.8858C57.6599 84.4458 58.7999 83.9558 59.4199 82.9858C59.7899 82.4158 59.9399 81.7458 60.0799 81.0758C60.4199 79.4058 60.6799 77.7158 60.8499 76.0258C60.9399 75.1558 60.9999 74.2358 60.5999 73.4558C59.9299 72.1458 58.2799 71.7458 56.8299 71.4958C55.3999 71.2458 53.8798 71.0058 52.5198 71.5458C51.0998 72.1058 51.2999 73.1958 51.0499 74.4958C50.7399 76.1258 50.4698 77.7558 50.2798 79.3958C50.1698 80.3258 50.0899 81.3158 50.4799 82.1758C50.8399 82.9558 52.0399 83.9358 53.1999 84.5758Z" fill="#EDD5BE"/>
<path d="M62.5 148.396C62.16 140.906 62.8699 133.266 62.8099 125.736C63.0299 123.126 62.67 120.466 61.76 118.006C61.7 117.856 61.6399 117.696 61.5299 117.576C61.1799 117.216 60.58 117.406 60.11 117.596C55.64 119.446 50.3699 119.006 46.2999 116.396C45.4999 117.626 45.26 119.136 45.07 120.586C44.75 122.936 44.3999 125.286 44.3099 127.656V127.666C44.2899 128.176 44.2799 128.686 44.2899 129.196C44.3499 132.146 44.91 135.046 45.36 137.956C45.65 139.856 45.8999 141.756 45.9299 143.676C45.9499 145.246 45.73 146.686 46.08 148.226C46.94 152.016 46.9499 156.146 47.3099 160.016C47.6999 164.166 47.77 164.026 48.09 168.176C48.1 168.346 48.12 168.506 48.13 168.676C48.34 168.736 51.5199 169.466 51.5199 168.636C51.7799 160.576 52.35 156.796 52.61 148.736C52.72 145.346 52.47 133.886 53.33 130.656C53.68 130.696 54.0399 130.726 54.3899 130.766C56.3299 141.426 58.31 155.826 60.25 166.496C60.42 167.436 60.63 168.446 61.25 169.056C61.87 169.666 63.02 169.496 63.2 168.556C62.62 160.416 62.87 156.546 62.5 148.396Z" fill="#2C2C2B"/>
<path d="M53.8099 93.0359C53.7999 93.0359 53.7799 93.0459 53.7699 93.0459C53.7899 93.0459 53.7999 93.0359 53.8099 93.0359Z" fill="white"/>
<path d="M53.8999 93.0059C53.8899 93.0059 53.89 93.0159 53.88 93.0159C53.88 93.0159 53.8899 93.0159 53.8999 93.0059Z" fill="white"/>
<path d="M53.86 93.0258C53.87 93.0258 53.87 93.0159 53.87 93.0159C53.85 93.0259 53.8299 93.0259 53.8099 93.0359C53.8299 93.0259 53.85 93.0258 53.86 93.0258Z" fill="#34455F"/>
<path d="M54.7799 76.5758C55.2099 76.5958 55.6599 76.6157 56.0499 76.4257C56.4399 76.2357 56.7299 75.7758 56.5699 75.3758C56.2399 75.9258 56.9699 76.4857 57.5699 76.7057C58.3499 76.9957 59.1399 77.2858 59.9199 77.5758C61.7199 86.3358 60.62 95.4058 59.51 104.276C60.85 104.316 62.1799 104.356 63.5199 104.396C63.6499 104.396 63.7899 104.396 63.8899 104.316C63.9999 104.226 64.0199 104.066 64.0399 103.916C64.6899 95.5058 64.2799 87.0457 63.5499 78.6457C63.4699 77.7057 63.38 76.7558 63.09 75.8558C62.78 74.8658 62.2399 73.9658 61.6799 73.0958C61.0699 72.1458 60.4199 71.1958 59.5299 70.5058C58.0099 69.3258 55.9399 69.0358 54.0399 69.3258C52.9999 69.4858 51.96 69.8158 51.13 70.4458C49.99 71.3058 49.3199 72.6458 48.8099 73.9758C48.0599 75.9258 47.57 77.9658 47.09 80.0058C45.34 87.3258 43.6 94.6457 41.85 101.956C42.96 102.336 44.08 102.696 45.21 103.026C45.56 103.126 45.98 103.206 46.24 102.956C46.41 102.786 46.45 102.526 46.47 102.286C47.12 96.0358 48.1999 89.8358 49.6799 83.7358C50.1099 81.9658 50.5799 80.1858 51.3099 78.5058C52.2099 76.4558 52.6199 76.4658 54.7799 76.5758Z" fill="#6B4C4C"/>
<path d="M50.5399 168.266C50.6999 168.256 50.8799 168.236 51.0199 168.326C51.1799 168.416 51.26 168.606 51.3 168.786C51.58 169.896 51.1499 171.046 51.0299 172.186C50.9599 172.866 50.9899 173.556 50.8899 174.226C50.6599 174.206 50.43 174.186 50.2 174.156C50.25 173.756 50.25 173.346 50.21 172.946C50.2 172.816 50.17 172.686 50.1 172.576C50.03 172.466 49.8799 172.406 49.7699 172.446C49.6599 172.486 49.61 172.606 49.57 172.706C49.47 172.956 49.4 173.216 49.34 173.476C49.31 173.616 49.28 173.776 49.18 173.886C49.03 174.066 48.7599 174.066 48.5299 174.066C47.6799 174.056 46.83 174.036 45.97 174.026C45.61 174.016 45.19 173.996 44.96 173.706C44.68 173.366 44.8499 172.816 45.1699 172.516C45.4899 172.206 45.92 172.046 46.3 171.816C46.71 171.556 47.06 171.196 47.3 170.776C47.72 170.056 47.7299 168.976 48.2799 168.346C48.5099 168.086 48.77 168.136 49.08 168.186C49.57 168.266 50.0499 168.306 50.5399 168.266Z" fill="#3D352F"/>
<path d="M62.3299 167.566C62.4099 167.566 62.4899 167.566 62.5499 167.606C62.5899 167.636 62.6199 167.686 62.6399 167.736C62.9499 168.366 62.9399 169.096 63.0699 169.786C63.2499 170.756 63.7099 171.656 64.0799 172.576C64.1899 172.846 64.2899 173.116 64.2799 173.406C64.2699 173.966 63.8199 174.446 63.2999 174.646C62.7799 174.846 62.1899 174.816 61.6399 174.716C61.5299 174.696 61.4099 174.676 61.3099 174.616C61.1999 174.566 61.1099 174.486 61.0299 174.396C60.3599 173.666 60.3199 172.576 60.2799 171.576C60.2599 171.006 60.2199 170.436 60.1799 169.866C60.1399 169.386 59.9599 168.776 60.0499 168.306C60.1199 167.906 60.4199 167.876 60.7699 167.826C61.2799 167.766 61.7999 167.596 62.3299 167.566Z" fill="#3D352F"/>
<path d="M80.81 68.0659C81.14 67.9259 81.37 67.6059 81.55 67.2959C81.93 66.6259 82.21 65.8659 82.2 65.0959C82.17 62.4259 78.5101 62.0859 76.5101 61.4259C75.7001 61.1659 74.6599 60.9659 74.1399 61.6459C73.7299 62.1859 73.52 62.3359 73.43 63.0759C73.31 64.1259 73.2 65.1659 73.08 66.2159C73.06 66.3859 73.05 66.5759 73.16 66.7059C73.24 66.8059 73.37 66.8459 73.49 66.8759C75.55 67.4959 77.69 67.7959 79.83 68.1059C80.15 68.1459 80.5 68.1959 80.81 68.0659Z" fill="#696D79"/>
<path d="M81.9799 64.7057C81.7899 64.1257 81.5899 63.5358 81.1699 63.0758C80.5599 62.4058 79.6099 62.1257 78.7199 61.8657C78.5299 61.8157 78.2599 61.7857 78.1899 61.9657C78.1399 62.0957 78.2599 62.2357 78.3599 62.3457C78.8199 62.8457 79.0699 63.4957 79.1999 64.1457C79.3299 64.7957 79.3599 65.4557 79.4499 66.1157C79.4999 66.4657 79.6099 66.7257 79.7899 66.8857C77.8199 69.7557 76.3899 73.0757 74.3499 75.9057C70.8699 80.7157 65.8399 83.7157 61.1699 87.0057C60.2699 87.6457 59.2699 88.4857 59.1999 89.6457C59.1699 90.2357 59.3999 90.7857 59.6399 91.3057C60.2599 92.6257 61.25 94.0257 62.63 93.8757C63.55 93.7757 64.32 92.9857 65 92.2457C67.34 89.6957 69.66 87.1757 72.38 84.2057C73.68 82.7857 74.9899 81.3657 76.0899 79.7457C77.5099 77.6557 78.5499 75.2957 79.5699 72.9457C80.2999 71.2757 81.03 69.6057 81.76 67.9357C81.92 67.5757 82.0699 67.1957 82.1599 66.8057C82.1899 66.7757 82.22 66.7457 82.24 66.7157C82.59 66.0957 82.1699 65.2957 81.9799 64.7057Z" fill="#EDD5BE"/>
<path d="M71.2999 60.8459C70.7499 61.1559 70.2 61.4859 69.61 61.7159C69.34 61.8159 69.1599 61.4159 69.4299 61.2959C70.0099 61.0459 70.6099 60.8459 71.1799 60.5659C71.3599 60.4659 71.4699 60.7459 71.2999 60.8459Z" fill="#666666"/>
<path d="M71.12 59.8459C70.63 59.6659 70.19 59.4159 69.81 59.0559C69.6 58.8559 69.85 58.4759 70.09 58.6759C70.47 58.9959 70.86 59.2959 71.29 59.5359C71.46 59.6459 71.3 59.9159 71.12 59.8459Z" fill="#666666"/>
<path d="M71.8999 59.0958C71.4299 58.6058 71.0599 57.9658 70.7099 57.3858C70.5599 57.1358 70.8999 56.8458 71.0799 57.0958C71.4699 57.6658 71.9199 58.2858 72.1799 58.9258C72.2499 59.1158 72.0299 59.2258 71.8999 59.0958Z" fill="#666666"/>
<path d="M53.08 88.0357C53.06 87.7957 53.02 87.5357 52.83 87.3957C52.67 87.2857 52.4599 87.2957 52.2699 87.3257C49.3799 87.7257 47.4499 90.4457 45.8899 92.9157C43.8699 96.1157 41.8399 99.3257 40.1899 102.736C40.0999 102.926 40.01 103.126 40 103.326C40 103.596 40.1399 103.846 40.2699 104.076C41.3499 105.916 42.4399 107.766 43.5199 109.606C43.7599 110.006 44 110.446 43.96 110.906C43.87 111.936 42.4399 112.856 43.0499 113.686C43.3799 114.136 44.1399 114.046 44.5399 113.646C44.9399 113.246 45.0699 112.666 45.1899 112.116C45.4699 110.836 45.7399 109.546 46.0199 108.266C46.0899 107.946 46.16 107.616 46.08 107.296C45.99 106.946 45.74 106.666 45.5 106.406C44.75 105.586 44.01 104.776 43.26 103.956C45.26 101.446 47.72 99.3257 49.72 96.8157C51.73 94.3257 53.3 91.2457 53.08 88.0357Z" fill="#EDD5BE"/>
<path d="M66.61 123.536C64.55 119.866 63.4999 115.566 64.0399 111.396C64.6599 106.586 65.3599 102.686 64.1499 97.8857C63.8899 96.8357 63.4799 95.8357 63.0799 94.8357C62.1899 92.6357 61.2999 90.4357 60.4199 88.2257C60.2199 87.7157 60.0099 87.2057 59.6399 86.7957C58.4199 85.4557 54.9999 87.2857 53.1699 86.8057C52.4099 86.6057 52.22 86.3157 51.74 86.9557C51.34 87.5057 51.1499 88.4257 50.9099 89.0657C49.8199 91.9157 48.86 94.8657 48.63 97.9257C48.51 99.4557 48.58 101.026 48.13 102.496C47.76 103.696 47.07 104.766 46.51 105.896C44.46 110.006 44.2199 114.776 42.6999 119.106C42.4499 119.816 42.1699 120.516 42.0899 121.256C42.0099 121.996 42.1799 122.806 42.7099 123.336C43.0899 123.706 43.61 123.896 44.11 124.076C44.85 124.336 45.5799 124.596 46.3199 124.856C47.3399 125.216 48.3699 125.576 49.4299 125.786C50.7299 126.036 52.06 126.056 53.38 126.066C55.82 126.096 58.2499 126.116 60.6899 126.146C62.0799 126.166 63.4699 126.176 64.8499 126.066C65.7799 125.996 66.94 125.626 67.01 124.696C67.03 124.286 66.81 123.906 66.61 123.536Z" fill="#E6ECED"/>
<defs>
<linearGradient id="paint0_linear_0_1" x1="224.636" y1="175.124" x2="264.44" y2="175.124" gradientUnits="userSpaceOnUse">
<stop stop-color="#4D4D4D"/>
<stop offset="1"/>
</linearGradient>
<linearGradient id="paint1_linear_0_1" x1="224.636" y1="175.124" x2="264.44" y2="175.124" gradientUnits="userSpaceOnUse">
<stop/>
<stop offset="1"/>
</linearGradient>
<linearGradient id="paint2_linear_0_1" x1="140.615" y1="173.22" x2="171.09" y2="173.22" gradientUnits="userSpaceOnUse">
<stop stop-color="#4D4D4D"/>
<stop offset="1"/>
</linearGradient>
<linearGradient id="paint3_linear_0_1" x1="140.615" y1="173.22" x2="171.09" y2="173.22" gradientUnits="userSpaceOnUse">
<stop/>
<stop offset="1"/>
</linearGradient>
<linearGradient id="paint4_linear_0_1" x1="183.887" y1="175.709" x2="211.733" y2="175.709" gradientUnits="userSpaceOnUse">
<stop stop-color="#4D4D4D"/>
<stop offset="1"/>
</linearGradient>
<linearGradient id="paint5_linear_0_1" x1="183.887" y1="175.709" x2="211.733" y2="175.709" gradientUnits="userSpaceOnUse">
<stop/>
<stop offset="1"/>
</linearGradient>
<linearGradient id="paint6_linear_0_1" x1="100.37" y1="175.176" x2="127.07" y2="175.176" gradientUnits="userSpaceOnUse">
<stop stop-color="#4D4D4D"/>
<stop offset="1"/>
</linearGradient>
<linearGradient id="paint7_linear_0_1" x1="100.37" y1="175.176" x2="127.07" y2="175.176" gradientUnits="userSpaceOnUse">
<stop/>
<stop offset="1"/>
</linearGradient>
<linearGradient id="paint8_linear_0_1" x1="44.419" y1="172.931" x2="72.5945" y2="172.931" gradientUnits="userSpaceOnUse">
<stop stop-color="white"/>
<stop offset="1"/>
</linearGradient>
<linearGradient id="paint9_linear_0_1" x1="44.419" y1="172.931" x2="72.5945" y2="172.931" gradientUnits="userSpaceOnUse">
<stop/>
<stop offset="1"/>
</linearGradient>
</defs>
</svg>
